<svg width="70" height="54" viewBox="0 0 70 54" fill="none" xmlns="http://www.w3.org/2000/svg">
<g clip-path="url(#clip0_74:162)">
<path d="M11.7574 30.7093C10.6037 30.7093 9.65739 29.7111 9.81294 28.5574C10.7722 21.5185 16.3592 15.9185 23.3981 14.9722C24.5389 14.8167 25.537 15.763 25.537 16.9167C25.537 17.9019 24.7981 18.7056 23.8129 18.8482C21.2852 19.2111 19.0166 20.3648 17.2537 22.05C15.3611 23.8648 14.0518 26.2889 13.6629 29.0111C13.5463 29.9704 12.7426 30.7093 11.7574 30.7093Z" fill="#FF325F"/>
<path d="M56.4926 26.1333L55.7407 25.3815C52.3055 21.9463 52.3055 16.3852 55.7407 12.963L56.6352 12.0685C57.9963 10.7074 58.3333 8.52963 57.2574 6.92223C55.8055 4.77037 52.837 4.56297 51.1 6.3L43.0111 14.3889L39.3426 10.7204L47.2111 2.85185C50.5037 -0.440738 55.8185 -1.02407 59.5129 1.82778C63.9852 5.27593 64.2833 11.7444 60.4204 15.6074L59.4092 16.6185C58.7352 17.2926 58.3592 18.2 58.3592 19.1593C58.3592 20.1185 58.7352 21.0259 59.4092 21.7L60.1611 22.4519C61.1722 23.463 61.1722 25.1093 60.1611 26.1204C59.137 27.1444 57.5037 27.1444 56.4926 26.1333Z" fill="#FF325F"/>
<path d="M24.6815 51.9815C19.1333 51.9815 13.5981 50.0111 9.25554 46.0833C3.57777 40.9241 0.842582 33.4833 1.93147 25.6537C2.33332 22.75 3.33147 19.9241 4.83517 17.4093C10.6944 7.62223 22.1407 3.87593 32.1222 7.29816C33.6907 7.8426 34.3907 9.43705 33.6518 10.9278C33.0685 12.1204 31.6815 12.6389 30.4241 12.1982C22.387 9.45001 13.1315 12.7037 8.77591 20.9611C7.99814 22.4259 7.46665 24.0204 7.16851 25.6537C5.93703 32.4722 8.45184 38.9796 13.7667 43.1407C19.1074 47.3278 26.5611 48.0796 32.6148 44.9944C39.6537 41.4167 43.3481 33.9241 42.2722 26.4963C42.0648 25.0185 41.6629 23.5796 41.0926 22.2056C40.3667 20.4296 41.2481 19.6 43.1666 17.7852C43.2833 17.6815 43.4 17.5648 43.5167 17.4611L36.2833 10.2278C35.2722 9.21667 35.2722 7.57038 36.2833 6.55927C37.2944 5.54816 38.9407 5.54816 39.9518 6.55927L48.8833 15.4907C49.4407 16.0482 49.7389 16.8 49.7259 17.5778C49.7129 18.3426 49.3759 19.0944 48.8185 19.613C47.8204 20.5333 47.0426 21.2722 46.4722 21.8037C46.9 23.087 47.2111 24.4093 47.4055 25.7574C48.4815 33.25 45.8111 40.8074 40.25 45.9537C35.9204 49.9593 30.3074 51.9815 24.6815 51.9815Z" fill="#0096FF"/>
<path d="M52.2148 35C53.1092 35.5963 54.3148 35.35 54.9111 34.4426L56.1166 32.6148C56.7129 31.7204 56.4666 30.5148 55.5592 29.9185C54.6648 29.3222 53.4592 29.5685 52.8629 30.4759L51.6574 32.3037C51.074 33.1982 51.3203 34.4037 52.2148 35Z" fill="#0096FF"/>
<path d="M59.6944 32.9648L60.9259 35.5833C61.3796 36.5556 62.5333 36.9704 63.5055 36.5167C64.4777 36.063 64.9055 34.8963 64.4389 33.9241L63.2074 31.3056C62.7537 30.3333 61.6 29.9185 60.6277 30.3722C59.6555 30.8259 59.2407 31.9926 59.6944 32.9648Z" fill="#0096FF"/>
<path d="M63.9722 26.4185C63.8037 27.4815 64.5296 28.4796 65.5925 28.6481L67.7574 28.9852C68.8203 29.1537 69.8185 28.4278 69.987 27.3648C70.1555 26.3019 69.4296 25.3037 68.3666 25.1352L66.2018 24.7981C65.1388 24.6296 64.1407 25.3556 63.9722 26.4185Z" fill="#0096FF"/>
<path opacity="0.2" d="M21.7 16.9167C14.6611 17.8759 9.07405 23.463 8.11479 30.5019C7.95924 31.6426 8.90553 32.6537 10.0592 32.6537C11.0444 32.6537 11.8481 31.9148 11.9778 30.9426C12.3666 28.2204 13.6759 25.7963 15.5685 23.9815C17.3315 22.2963 19.6 21.1426 22.1278 20.7796C23.1 20.637 23.8518 19.8333 23.8518 18.8482C23.8518 17.7074 22.8537 16.7611 21.7 16.9167Z" fill="#FF325F"/>
<path opacity="0.2" d="M7.55739 48.0278C11.9 51.9685 17.4352 53.9259 22.9833 53.9259C28.5963 53.9259 34.2222 51.9037 38.5778 47.8722C44.1389 42.7259 46.8222 35.1815 45.7333 27.6759C45.5389 26.3278 45.2278 25.0055 44.8 23.7222C45.3574 23.1907 46.1481 22.4648 47.1463 21.5315C47.7167 21.0129 48.0407 20.2611 48.0537 19.4963C48.0667 18.7185 47.7685 17.9667 47.2111 17.4092L43.7111 13.9092L49.3889 8.23147C51.1259 6.49443 54.0944 6.70184 55.5463 8.85369C56.6222 10.4611 56.2852 12.6259 54.9241 14L54.0296 14.8944C50.5944 18.3296 50.5944 23.8907 54.0296 27.3129L54.7815 28.0648C55.7926 29.0759 57.4389 29.0759 58.45 28.0648C59.4611 27.0537 59.4611 25.4074 58.45 24.3963L57.6981 23.6444C57.0241 22.9704 56.6481 22.0629 56.6481 21.1037C56.6481 20.1444 57.0241 19.237 57.6981 18.5629L58.7093 17.5518C62.5722 13.6889 62.2611 7.22036 57.8018 3.77221C54.1074 0.920356 48.8055 1.50369 45.5 4.79628L40.0426 10.2537L38.2796 8.49073C37.2685 7.47962 35.6222 7.47962 34.6111 8.49073C33.6 9.50184 33.6 11.1481 34.6111 12.1592L41.8444 19.3926C41.7278 19.4963 41.6111 19.6129 41.4944 19.7167C39.563 21.5315 38.6815 22.3611 39.4204 24.137C39.9907 25.5111 40.3926 26.95 40.6 28.4278C41.6759 35.8555 37.9815 43.3481 30.9426 46.9259C24.8889 50.0111 17.4352 49.2592 12.0944 45.0722C6.77962 40.9111 4.2648 34.4037 5.49628 27.5852C5.79443 25.9518 6.32591 24.3704 7.10369 22.8926C11.4592 14.6352 20.7148 11.3815 28.7518 14.1296C30.0092 14.5574 31.3833 14.0389 31.9796 12.8592C32.7185 11.3685 32.0185 9.77406 30.45 9.22962C20.4685 5.80739 9.02221 9.56665 3.16295 19.3407C1.65925 21.8555 0.661098 24.6815 0.259246 27.5852C-0.855569 35.4278 1.87962 42.8685 7.55739 48.0278Z" fill="#FF325F"/>
<path opacity="0.2" d="M53.874 31.863C52.9796 31.2667 51.774 31.513 51.1777 32.4204L49.9722 34.2482C49.3759 35.1426 49.6222 36.3482 50.5296 36.9445C51.424 37.5408 52.6296 37.2945 53.2259 36.387L54.4314 34.5593C55.0148 33.6648 54.7685 32.4593 53.874 31.863Z" fill="#FF325F"/>
<path opacity="0.2" d="M58.9296 32.3167C57.9574 32.7704 57.5296 33.9241 57.9963 34.9093L59.2278 37.5278C59.6815 38.5 60.8352 38.9148 61.8074 38.4611C62.7796 38.0074 63.2074 36.8407 62.7407 35.8685L61.5093 33.25C61.0556 32.2907 59.9018 31.863 58.9296 32.3167Z" fill="#FF325F"/>
<path opacity="0.2" d="M63.8815 30.5796L66.0463 30.9167C67.1092 31.0852 68.1074 30.3593 68.2759 29.2963C68.4444 28.2333 67.7185 27.2352 66.6555 27.0667L64.4907 26.7296C63.4278 26.5611 62.4296 27.287 62.2611 28.35C62.1055 29.4259 62.8315 30.4111 63.8815 30.5796Z" fill="#FF325F"/>
</g>
<defs>
<clipPath id="clip0_74:162">
<rect width="70" height="53.9259" fill="white"/>
</clipPath>
</defs>
</svg>
