<svg width="68" height="63" viewBox="0 0 68 63" fill="none" xmlns="http://www.w3.org/2000/svg">
<g clip-path="url(#clip0_74:124)">
<path d="M37.5775 0H32.1978V10.1005H37.5775V0Z" fill="#FF325F"/>
<path d="M58.7737 60.2128C51.0403 60.2128 44.7191 53.9992 44.5577 46.3061H25.2041C25.0427 53.9992 18.7215 60.2128 10.9881 60.2128C5.90425 60.2128 1.76184 56.0704 1.76184 50.9865V25.7959C1.76184 15.655 10.0063 7.41058 20.1471 7.41058H49.6281C59.769 7.41058 68.0134 15.655 68.0134 25.7959V51C68 56.0838 63.8576 60.2128 58.7737 60.2128ZM24.8948 40.9264H44.8671C47.6645 40.9264 49.9375 43.1993 49.9375 45.9968C49.9375 50.8655 53.905 54.833 58.7737 54.833C60.8987 54.833 62.6202 53.1115 62.6202 50.9865V25.7959C62.6202 18.6274 56.7832 12.7903 49.6147 12.7903H20.1471C12.9786 12.7903 7.14159 18.6274 7.14159 25.7959V51C7.14159 53.125 8.86311 54.8465 10.9881 54.8465C15.8568 54.8465 19.8243 50.8789 19.8243 46.0103C19.8378 43.1993 22.1107 40.9264 24.8948 40.9264Z" fill="#0096FF"/>
<path d="M51.6859 23.6709C51.6859 25.1772 50.462 26.4011 48.9557 26.4011C47.4494 26.4011 46.2255 25.1772 46.2255 23.6709C46.2255 22.1646 47.4494 20.9407 48.9557 20.9407C50.462 20.9407 51.6859 22.1646 51.6859 23.6709Z" fill="#FF325F"/>
<path d="M56.5411 30.2611C56.5411 31.7674 55.3172 32.9913 53.8109 32.9913C52.3046 32.9913 51.0807 31.7674 51.0807 30.2611C51.0807 28.7547 52.3046 27.5309 53.8109 27.5309C55.3172 27.5309 56.5411 28.7547 56.5411 30.2611Z" fill="#FF325F"/>
<path d="M43.4818 36.9588H39.5142C39.1242 36.9588 38.8149 36.6495 38.8149 36.2595V33.3141C38.8149 32.9241 39.1242 32.6147 39.5142 32.6147H43.4818C43.8718 32.6147 44.1812 32.9241 44.1812 33.3141V36.2595C44.1946 36.6495 43.8718 36.9588 43.4818 36.9588Z" fill="#0096FF"/>
<path d="M30.8798 36.9588H26.9122C26.5222 36.9588 26.2128 36.6495 26.2128 36.2595V33.3141C26.2128 32.9241 26.5222 32.6147 26.9122 32.6147H30.8798C31.2698 32.6147 31.5791 32.9241 31.5791 33.3141V36.2595C31.5926 36.6495 31.2698 36.9588 30.8798 36.9588Z" fill="#0096FF"/>
<path d="M18.6812 32.9779C17.7128 32.9779 16.9193 32.1978 16.9193 31.216V23.8188C16.9193 22.8505 17.6994 22.057 18.6812 22.057C19.6495 22.057 20.443 22.837 20.443 23.8188V31.216C20.443 32.1978 19.6495 32.9779 18.6812 32.9779Z" fill="#FF325F"/>
<path d="M24.1282 27.4367V27.625C24.1282 28.5934 23.3481 29.3869 22.3663 29.3869H14.9691C14.0008 29.3869 13.2073 28.6068 13.2073 27.625V27.4367C13.2073 26.4684 13.9873 25.6749 14.9691 25.6749H22.3663C23.3481 25.6883 24.1282 26.4684 24.1282 27.4367Z" fill="#FF325F"/>
<path opacity="0.2" d="M9.22626 62.2302C16.9597 62.2302 23.2809 56.0166 23.4422 48.3236H42.7959C42.9573 56.0166 49.2785 62.2302 57.0119 62.2302C62.0957 62.2302 66.2381 58.0878 66.2381 53.0039V27.8133C66.2381 17.6725 57.9937 9.428 47.8528 9.428H35.8022V2.0174H30.4225V9.428H18.3718C8.24446 9.428 0 17.6725 0 27.8133V53.0174C0 58.1012 4.14241 62.2302 9.22626 62.2302ZM5.37975 27.8133C5.37975 20.6448 11.2168 14.8077 18.3853 14.8077H47.8663C55.0348 14.8077 60.8718 20.6448 60.8718 27.8133V53.0174C60.8718 55.1424 59.1503 56.8639 57.0253 56.8639C52.1566 56.8639 48.1891 52.8963 48.1891 48.0277C48.1891 45.2302 45.9161 42.9573 43.1187 42.9573H23.1329C20.3354 42.9573 18.0625 45.2302 18.0625 48.0277C18.0625 52.8963 14.0949 56.8639 9.22626 56.8639C7.10127 56.8505 5.37975 55.1289 5.37975 53.0039V27.8133Z" fill="#FF325F"/>
<path opacity="0.2" d="M47.1938 28.4185C48.7002 28.4185 49.924 27.1946 49.924 25.6883C49.924 24.182 48.7002 22.9581 47.1938 22.9581C45.6875 22.9581 44.4636 24.182 44.4636 25.6883C44.4502 27.1946 45.6741 28.4185 47.1938 28.4185Z" fill="#FF325F"/>
<path opacity="0.2" d="M52.0356 35.0087C53.5419 35.0087 54.7658 33.7848 54.7658 32.2785C54.7658 30.7721 53.5419 29.5482 52.0356 29.5482C50.5292 29.5482 49.3054 30.7721 49.3054 32.2785C49.3054 33.7982 50.5292 35.0087 52.0356 35.0087Z" fill="#FF325F"/>
<path opacity="0.2" d="M37.7523 38.9763H41.7199C42.1099 38.9763 42.4193 38.6669 42.4193 38.2769V35.3315C42.4193 34.9414 42.1099 34.6321 41.7199 34.6321H37.7523C37.3623 34.6321 37.053 34.9414 37.053 35.3315V38.2769C37.053 38.6669 37.3623 38.9763 37.7523 38.9763Z" fill="#FF325F"/>
<path opacity="0.2" d="M25.1503 38.9763H29.1179C29.5079 38.9763 29.8172 38.6669 29.8172 38.2769V35.3315C29.8172 34.9414 29.5079 34.6321 29.1179 34.6321H25.1503C24.7603 34.6321 24.4509 34.9414 24.4509 35.3315V38.2769C24.4509 38.6669 24.7603 38.9763 25.1503 38.9763Z" fill="#FF325F"/>
<path opacity="0.2" d="M13.2207 31.3908H15.1574V33.2468C15.1574 34.2152 15.9375 35.0087 16.9193 35.0087C17.9011 35.0087 18.6812 34.2286 18.6812 33.2468V31.3908H20.6179C21.5862 31.3908 22.3797 30.6108 22.3797 29.629V29.4541C22.3797 28.4858 21.5997 27.6923 20.6179 27.6923H18.6812V25.8362C18.6812 24.8679 17.9011 24.0744 16.9193 24.0744C15.9375 24.0744 15.1574 24.8544 15.1574 25.8362V27.6923H13.2207C12.2524 27.6923 11.4589 28.4723 11.4589 29.4541V29.6424C11.4589 30.6108 12.2524 31.3908 13.2207 31.3908Z" fill="#FF325F"/>
</g>
<defs>
<clipPath id="clip0_74:124">
<rect width="68" height="62.2302" fill="white"/>
</clipPath>
</defs>
</svg>
