<svg width="80" height="80" viewBox="0 0 80 80" fill="none" xmlns="http://www.w3.org/2000/svg">
<path d="M17.5 11C15.5109 11 13.6032 11.7902 12.1967 13.1967C10.7902 14.6032 10 16.5109 10 18.5V24.465C10 27.065 11.35 29.475 13.555 30.84L32.885 42.79C29.9449 44.3742 27.6175 46.8943 26.2717 49.9509C24.9259 53.0075 24.6387 56.4258 25.4556 59.6641C26.2725 62.9025 28.1468 65.7755 30.7814 67.8281C33.416 69.8806 36.6602 70.9952 40 70.9952C43.3398 70.9952 46.584 69.8806 49.2186 67.8281C51.8532 65.7755 53.7275 62.9025 54.5444 59.6641C55.3613 56.4258 55.0741 53.0075 53.7283 49.9509C52.3825 46.8943 50.0551 44.3742 47.115 42.79L66.445 30.84C67.5314 30.1681 68.4282 29.2298 69.0504 28.1142C69.6725 26.9985 69.9994 25.7424 70 24.465V18.5C70 16.5109 69.2098 14.6032 67.8033 13.1967C66.3968 11.7902 64.4891 11 62.5 11H17.5ZM30 35.13V16H50V35.13L41.315 40.5C40.9199 40.7444 40.4645 40.8738 40 40.8738C39.5355 40.8738 39.0801 40.7444 38.685 40.5L30 35.13ZM40 46C42.6522 46 45.1957 47.0536 47.0711 48.9289C48.9464 50.8043 50 53.3479 50 56C50 58.6522 48.9464 61.1957 47.0711 63.0711C45.1957 64.9465 42.6522 66 40 66C37.3478 66 34.8043 64.9465 32.9289 63.0711C31.0536 61.1957 30 58.6522 30 56C30 53.3479 31.0536 50.8043 32.9289 48.9289C34.8043 47.0536 37.3478 46 40 46Z" fill="#431642"/>
<path d="M17.5 10C15.5109 10 13.6032 10.7902 12.1967 12.1967C10.7902 13.6032 10 15.5109 10 17.5V23.465C10 26.065 11.35 28.475 13.555 29.84L32.885 41.79C29.9449 43.3742 27.6175 45.8943 26.2717 48.9509C24.9259 52.0075 24.6387 55.4258 25.4556 58.6641C26.2725 61.9025 28.1468 64.7755 30.7814 66.8281C33.416 68.8806 36.6602 69.9952 40 69.9952C43.3398 69.9952 46.584 68.8806 49.2186 66.8281C51.8532 64.7755 53.7275 61.9025 54.5444 58.6641C55.3613 55.4258 55.0741 52.0075 53.7283 48.9509C52.3825 45.8943 50.0551 43.3742 47.115 41.79L66.445 29.84C67.5314 29.1681 68.4282 28.2298 69.0504 27.1142C69.6725 25.9985 69.9994 24.7424 70 23.465V17.5C70 15.5109 69.2098 13.6032 67.8033 12.1967C66.3968 10.7902 64.4891 10 62.5 10H17.5ZM30 34.13V15H50V34.13L41.315 39.5C40.9199 39.7444 40.4645 39.8738 40 39.8738C39.5355 39.8738 39.0801 39.7444 38.685 39.5L30 34.13ZM40 45C42.6522 45 45.1957 46.0536 47.0711 47.9289C48.9464 49.8043 50 52.3479 50 55C50 57.6522 48.9464 60.1957 47.0711 62.0711C45.1957 63.9465 42.6522 65 40 65C37.3478 65 34.8043 63.9465 32.9289 62.0711C31.0536 60.1957 30 57.6522 30 55C30 52.3479 31.0536 49.8043 32.9289 47.9289C34.8043 46.0536 37.3478 45 40 45Z" fill="#0096FF"/>
<path d="M41.8178 48.483L42.968 50.7069C43.1028 50.9645 43.3545 51.1448 43.651 51.1791L46.2212 51.5398C46.9671 51.6428 47.2636 52.5186 46.7244 53.0252L44.8642 54.7597C44.6485 54.9572 44.5497 55.2491 44.6036 55.5325L45.0439 57.9796C45.1697 58.6923 44.3879 59.2332 43.7229 58.8984L41.4224 57.7478C41.1618 57.6104 40.8382 57.6104 40.5776 57.7478L38.2771 58.8984C37.6121 59.2332 36.8303 58.6923 36.9561 57.9796L37.3964 55.5325C37.4503 55.2491 37.3515 54.9658 37.1358 54.7597L35.2756 53.0252C34.7364 52.5186 35.0329 51.6428 35.7788 51.5398L38.349 51.1791C38.6455 51.1362 38.8972 50.9559 39.032 50.7069L40.1822 48.483C40.5237 47.839 41.4853 47.839 41.8178 48.483Z" fill="#FF325F"/>
<path opacity="0.2" d="M36.1358 56.7597C36.3515 56.9572 36.4503 57.2491 36.3964 57.5325L35.9561 59.9796C35.8303 60.6923 36.6121 61.2332 37.2771 60.8984L39.5776 59.7478C39.8472 59.6104 40.1618 59.6104 40.4224 59.7478L42.7229 60.8984C43.3879 61.2332 44.1697 60.6923 44.0439 59.9796L43.6036 57.5325C43.5497 57.2491 43.6485 56.9658 43.8642 56.7597L45.7244 55.0252C46.2636 54.5186 45.9671 53.6428 45.2212 53.5398L42.651 53.1791C42.3545 53.1362 42.1028 52.9559 41.968 52.7069L40.8178 50.483C40.4853 49.839 39.5237 49.839 39.1822 50.483L38.032 52.7069C37.8972 52.9645 37.6455 53.1448 37.349 53.1791L34.7788 53.5398C34.0329 53.6428 33.7364 54.5186 34.2756 55.0252L36.1358 56.7597Z" fill="#FF325F"/>
</svg>
