<svg width="71" height="59" viewBox="0 0 71 59" fill="none" xmlns="http://www.w3.org/2000/svg">
<g clip-path="url(#clip0_74:143)">
<path d="M57.121 28.602H54.3535V4.74626L57.2041 4.66324H68.4124C69.81 4.66324 70.9585 5.78407 71 7.18166L71.0139 7.51376V14.7231C71 22.389 64.787 28.602 57.121 28.602ZM59.8885 10.1982V22.5966C63.1403 21.4481 65.4789 18.3485 65.4789 14.7092V10.1982H59.8885Z" fill="#FF325F"/>
<path d="M18.473 28.602H15.7055C8.03957 28.602 1.81271 22.389 1.81271 14.7092V7.26468C1.81271 5.8671 2.93355 4.71859 4.33113 4.67708L4.66323 4.66324H18.39L18.473 7.51376V28.602ZM7.3477 10.1982V14.7231C7.3477 18.3623 9.68623 21.4619 12.938 22.6104V10.1982H7.3477Z" fill="#FF325F"/>
<path d="M36.697 56.0417H36.1158C34.7459 56.0417 33.6389 54.9347 33.6389 53.5648V44.183H39.1739V53.5648C39.1739 54.9347 38.0669 56.0417 36.697 56.0417Z" fill="#0096FF"/>
<path d="M37.6656 13.8098L39.4368 17.3937C39.6443 17.8088 40.0318 18.0994 40.4884 18.1548L44.4459 18.7359C45.5944 18.902 46.0511 20.3134 45.2208 21.1298L42.3565 23.925C42.0244 24.2432 41.8722 24.7137 41.9552 25.1703L42.6332 29.114C42.8269 30.2625 41.6231 31.1343 40.5991 30.5946L37.0567 28.7404C36.6554 28.519 36.1573 28.519 35.756 28.7404L32.2136 30.5946C31.1897 31.1343 29.9858 30.2625 30.1795 29.114L30.8576 25.1703C30.9406 24.7137 30.7884 24.2571 30.4563 23.925L27.5919 21.1298C26.7617 20.3134 27.2183 18.902 28.3668 18.7359L32.3243 18.1548C32.781 18.0856 33.1684 17.795 33.376 17.3937L35.1472 13.8098C35.673 12.772 37.1536 12.772 37.6656 13.8098Z" fill="#FF325F"/>
<path d="M36.8076 46.9505C23.6759 47.1581 12.938 35.9774 12.938 22.8456V2.60144C12.938 1.20386 14.0589 0.0553498 15.4564 0.0138375L15.7885 0H57.2871C58.6847 0 59.8332 1.12083 59.8747 2.51842L59.8885 2.85052V23.4822C59.8885 36.2818 49.5658 46.7291 36.8076 46.9505ZM18.473 5.53498V23.4683C18.473 33.3621 26.5264 41.4017 36.4064 41.4017C46.2863 41.4017 54.3397 33.3483 54.3397 23.4683V5.53498H18.473Z" fill="#0096FF"/>
<path opacity="0.2" d="M28.6435 25.9867C28.9756 26.305 29.1278 26.7755 29.0448 27.2321L28.3668 31.1758C28.1731 32.3243 29.3769 33.1961 30.4009 32.6564L33.9433 30.8022C34.3584 30.5808 34.8427 30.5808 35.244 30.8022L38.7864 32.6564C39.8104 33.1961 41.0142 32.3243 40.8205 31.1758L40.1425 27.2321C40.0594 26.7755 40.2116 26.3188 40.5437 25.9867L43.4081 23.1916C44.2383 22.3752 43.7817 20.9637 42.6332 20.7977L38.6757 20.2165C38.219 20.1473 37.8316 19.8567 37.624 19.4555L35.8528 15.8716C35.3409 14.8337 33.8602 14.8337 33.3344 15.8716L31.5632 19.4555C31.3557 19.8706 30.9682 20.1612 30.5116 20.2165L26.5541 20.7977C25.4056 20.9637 24.9489 22.3752 25.7792 23.1916L28.6435 25.9867Z" fill="#FF325F"/>
<path opacity="0.2" d="M11.8033 30.5116C14.0865 40.0594 22.0292 47.6009 31.8261 48.8324V55.6404C31.8261 57.0103 32.9331 58.1173 34.3031 58.1173H34.8842C36.2541 58.1173 37.3611 57.0103 37.3611 55.6404V48.8601C47.3656 47.6839 55.4467 40.184 57.5361 30.4839C64.1366 29.4184 69.1873 23.7036 69.1873 16.7987V9.58936L69.1734 9.25726C69.1319 7.85968 67.9834 6.73885 66.5858 6.73885H58.062V4.92614L58.0481 4.59404C58.0204 3.19646 56.8719 2.07562 55.4744 2.07562H13.962L13.6437 2.08946C12.2323 2.11713 11.1253 3.26564 11.1253 4.67707V6.73885H2.85052L2.51842 6.75268C1.12083 6.7942 0 7.94271 0 9.34029V16.7987C0 23.7589 5.11986 29.5015 11.8033 30.5116ZM63.6523 12.2738V16.7987C63.6523 20.4379 61.3138 23.5375 58.062 24.686V12.2738H63.6523ZM16.6603 7.61061H52.5408V25.544C52.5408 35.4377 44.4874 43.4773 34.6075 43.4773C24.7275 43.4773 16.6741 35.4239 16.6741 25.544V9.58936V7.61061H16.6603ZM5.53498 12.2738H11.1253V24.6722C7.87351 23.5237 5.53498 20.4241 5.53498 16.7987V12.2738Z" fill="#FF325F"/>
</g>
<defs>
<clipPath id="clip0_74:143">
<rect width="71" height="58.1173" fill="white"/>
</clipPath>
</defs>
</svg>
